<svg width="96" height="70" viewBox="0 0 96 70" fill="none" xmlns="http://www.w3.org/2000/svg">
<path d="M46.1405 34.1982C39.4428 20.6168 22.1405 -3.8669 6.51257 6.84938C-9.11534 17.5657 22.6231 45.5116 28.7627 47.7441C34.9022 49.9767 38.184 43.9268 31.6289 37.547C23.1813 29.3255 12.6521 62.1052 24.373 67.6866C33.7498 72.1517 48.2975 48.3023 48.9312 43.6866C49.5648 39.0709 46.1405 34.1982 46.1405 34.1982Z" stroke="black" stroke-width="3"/>
<path d="M49.7526 31.9657C56.4503 18.3843 73.7526 -6.09939 89.3805 4.61689C105.008 15.3332 73.2699 43.2791 67.1304 45.5116C60.9909 47.7442 57.7091 41.6943 64.2642 35.3145C72.7118 27.093 83.241 59.8727 71.52 65.4541C62.1433 69.9192 47.5955 46.0698 46.9619 41.4541C46.3283 36.8384 49.7526 31.9657 49.7526 31.9657Z" stroke="black" stroke-width="3"/>
</svg>
